<svg width="23" height="24" viewBox="0 0 23 24" fill="none" xmlns="http://www.w3.org/2000/svg">
<path d="M10.1913 21.4289C8.70553 20.7449 7.02141 19.4978 5.28124 18.3419C4.29336 17.6861 3.35703 16.967 2.63663 16.0189C1.89267 15.0402 1.82639 14.1627 2.39133 13.2843C2.92603 12.4531 3.85949 12.0884 4.99697 12.3215C6.14595 12.5572 7.25956 12.5902 8.42089 12.3126C10.3651 11.8473 12.1358 13.1947 12.2149 15.1604C12.2592 16.259 12.877 17.0454 13.4847 17.8602C13.9684 18.5088 14.2631 19.1983 14.0557 20.0145C13.6235 21.7108 12.5155 22.2194 10.1913 21.4289Z" fill="white"/>
<path d="M14.0565 6.17804C13.7054 7.07196 13.2869 7.92181 12.5123 8.54366C11.4097 9.42887 10.2471 9.22084 9.52558 8.01037C8.30107 5.95549 8.97796 3.52887 11.0564 2.5201C12.6685 1.73799 13.9597 2.39524 14.2495 4.14269C14.3658 4.84069 14.2557 5.51326 14.0565 6.17804Z" fill="white"/>
<path d="M13.7632 8.34273C14.3621 7.11641 15.2119 5.85353 16.7993 5.31245C18.3739 4.7759 19.5245 5.58851 19.5953 7.24252C19.6987 9.65096 17.6118 11.557 15.1939 11.2636C13.7907 11.0934 13.1842 9.98953 13.7632 8.34273Z" fill="white"/>
<path d="M8.08484 9.13111C7.63025 10.4365 6.75138 11.2901 5.32894 11.4705C3.77822 11.6671 2.56624 10.3147 3.01806 8.84849C3.46451 7.40006 4.40997 6.28873 5.78339 5.59587C6.74199 5.11229 7.42484 5.37349 7.90851 6.34113C8.35927 7.24307 8.42296 8.17925 8.08484 9.13111Z" fill="white"/>
<path d="M18.7563 15.6599C18.4358 16.5196 17.8278 17.5302 16.713 18.1365C15.6548 18.7122 14.8211 18.3735 14.4565 17.2177C14.0441 15.9126 14.1641 14.6302 14.8452 13.459C15.4413 12.4341 17.2469 11.9491 18.2891 12.4486C19.1271 12.8495 19.3421 13.9632 18.7563 15.6599Z" fill="white"/>
</svg>
