<svg width="156" height="55" viewBox="0 0 156 55" fill="none" xmlns="http://www.w3.org/2000/svg">
<circle cx="27.6362" cy="27.5" r="26.5" stroke="#ADA7FF" stroke-width="2"/>
<path d="M34.383 26.3176C35.6076 27.1049 35.6076 28.8951 34.383 29.6824L26.0815 35.019C24.7505 35.8747 23 34.919 23 33.3367L23 28.0001L23 22.6633C23 21.081 24.7505 20.1253 26.0815 20.981L34.383 26.3176Z" fill="#ADA7FF"/>
<path d="M70.1762 35.108C69.9122 35.108 69.6602 35.054 69.4202 34.946C69.1802 34.838 69.0242 34.676 68.9522 34.46L65.3882 22.796C65.3762 22.736 65.3702 22.676 65.3702 22.616C65.3702 22.46 65.4302 22.328 65.5502 22.22C65.6702 22.1 65.8202 22.01 66.0002 21.95C66.1922 21.878 66.3782 21.842 66.5582 21.842C66.7142 21.842 66.8522 21.872 66.9722 21.932C67.1042 21.992 67.1882 22.094 67.2242 22.238L70.1582 32.498L71.7962 26.054C71.8442 25.862 71.9582 25.724 72.1382 25.64C72.3302 25.544 72.5282 25.496 72.7322 25.496C72.9602 25.496 73.1642 25.544 73.3442 25.64C73.5242 25.724 73.6382 25.862 73.6862 26.054L75.3242 32.498L78.2582 22.238C78.3062 22.094 78.3902 21.992 78.5102 21.932C78.6302 21.872 78.7682 21.842 78.9242 21.842C79.1042 21.842 79.2842 21.878 79.4642 21.95C79.6442 22.01 79.7942 22.1 79.9142 22.22C80.0462 22.328 80.1122 22.46 80.1122 22.616C80.1122 22.676 80.1002 22.736 80.0762 22.796L76.5302 34.46C76.4582 34.676 76.3022 34.838 76.0622 34.946C75.8342 35.054 75.5822 35.108 75.3062 35.108C75.0422 35.108 74.7902 35.054 74.5502 34.946C74.3102 34.838 74.1662 34.676 74.1182 34.46L72.7322 29.024L71.3822 34.46C71.3222 34.676 71.1722 34.838 70.9322 34.946C70.7042 35.054 70.4522 35.108 70.1762 35.108ZM82.3767 35.144C81.7167 35.144 81.1527 34.952 80.6847 34.568C80.2167 34.172 79.9827 33.572 79.9827 32.768C79.9827 32.084 80.1627 31.556 80.5227 31.184C80.8827 30.812 81.3747 30.554 81.9987 30.41C82.6347 30.266 83.3667 30.194 84.1947 30.194H84.9867V29.87C84.9867 29.558 84.9267 29.258 84.8067 28.97C84.6987 28.67 84.5127 28.424 84.2487 28.232C83.9967 28.028 83.6487 27.926 83.2047 27.926C82.7607 27.926 82.4187 27.968 82.1787 28.052C81.9387 28.136 81.7467 28.226 81.6027 28.322C81.4587 28.418 81.3267 28.466 81.2067 28.466C80.9907 28.466 80.8227 28.364 80.7027 28.16C80.5827 27.944 80.5227 27.728 80.5227 27.512C80.5227 27.296 80.6607 27.104 80.9367 26.936C81.2247 26.756 81.5787 26.618 81.9987 26.522C82.4187 26.414 82.8327 26.36 83.2407 26.36C84.1287 26.36 84.8367 26.528 85.3647 26.864C85.8927 27.188 86.2767 27.614 86.5167 28.142C86.7567 28.67 86.8767 29.24 86.8767 29.852V34.37C86.8767 34.538 86.7867 34.688 86.6067 34.82C86.4387 34.94 86.2227 35 85.9587 35C85.7187 35 85.5147 34.94 85.3467 34.82C85.1787 34.688 85.0947 34.538 85.0947 34.37V33.74C84.7827 34.1 84.4047 34.424 83.9607 34.712C83.5167 35 82.9887 35.144 82.3767 35.144ZM83.0607 33.704C83.3607 33.704 83.6547 33.614 83.9427 33.434C84.2427 33.254 84.4887 33.026 84.6807 32.75C84.8847 32.474 84.9867 32.192 84.9867 31.904V31.238H84.5367C84.0807 31.238 83.6487 31.268 83.2407 31.328C82.8327 31.376 82.5027 31.496 82.2507 31.688C82.0107 31.868 81.8907 32.15 81.8907 32.534C81.8907 32.942 81.9987 33.242 82.2147 33.434C82.4427 33.614 82.7247 33.704 83.0607 33.704ZM91.8984 35C90.8784 35 90.0984 34.778 89.5584 34.334C89.0184 33.878 88.7484 33.164 88.7484 32.192V23.174C88.7484 22.994 88.8444 22.85 89.0364 22.742C89.2404 22.622 89.4564 22.562 89.6844 22.562C89.9124 22.562 90.1284 22.622 90.3324 22.742C90.5364 22.85 90.6384 22.994 90.6384 23.174V26.468H92.8344C93.0024 26.468 93.1284 26.54 93.2124 26.684C93.3084 26.828 93.3564 26.99 93.3564 27.17C93.3564 27.35 93.3084 27.512 93.2124 27.656C93.1284 27.8 93.0024 27.872 92.8344 27.872H90.6384V32.192C90.6384 32.624 90.7284 32.93 90.9084 33.11C91.1004 33.29 91.4304 33.38 91.8984 33.38H92.5104C92.7864 33.38 92.9904 33.464 93.1224 33.632C93.2664 33.788 93.3384 33.974 93.3384 34.19C93.3384 34.394 93.2664 34.58 93.1224 34.748C92.9904 34.916 92.7864 35 92.5104 35H91.8984ZM97.9885 35.144C97.1245 35.144 96.4105 34.988 95.8465 34.676C95.2945 34.364 94.8864 33.938 94.6224 33.398C94.3584 32.858 94.2264 32.246 94.2264 31.562V29.942C94.2264 29.27 94.3584 28.664 94.6224 28.124C94.8864 27.572 95.2945 27.14 95.8465 26.828C96.3985 26.516 97.1005 26.36 97.9525 26.36C98.5045 26.36 98.9845 26.426 99.3925 26.558C99.8125 26.69 100.136 26.858 100.364 27.062C100.604 27.254 100.724 27.458 100.724 27.674C100.724 27.782 100.688 27.914 100.616 28.07C100.556 28.214 100.466 28.34 100.346 28.448C100.238 28.544 100.106 28.592 99.9505 28.592C99.8305 28.592 99.6985 28.544 99.5545 28.448C99.4225 28.352 99.2425 28.262 99.0145 28.178C98.7865 28.082 98.4805 28.034 98.0965 28.034C97.4245 28.034 96.9265 28.202 96.6024 28.538C96.2785 28.874 96.1165 29.342 96.1165 29.942V31.562C96.1165 32.162 96.2785 32.63 96.6024 32.966C96.9265 33.302 97.4305 33.47 98.1145 33.47C98.5105 33.47 98.8225 33.422 99.0505 33.326C99.2785 33.218 99.4585 33.116 99.5905 33.02C99.7345 32.924 99.8725 32.876 100.004 32.876C100.172 32.876 100.316 32.924 100.436 33.02C100.568 33.116 100.664 33.236 100.724 33.38C100.796 33.524 100.832 33.656 100.832 33.776C100.832 33.98 100.706 34.19 100.454 34.406C100.214 34.622 99.8785 34.802 99.4465 34.946C99.0265 35.078 98.5405 35.144 97.9885 35.144ZM103.133 35C102.857 35 102.629 34.934 102.449 34.802C102.281 34.67 102.197 34.526 102.197 34.37V22.004C102.197 21.824 102.281 21.68 102.449 21.572C102.629 21.452 102.857 21.392 103.133 21.392C103.397 21.392 103.619 21.452 103.799 21.572C103.991 21.68 104.087 21.824 104.087 22.004V27.728C104.267 27.38 104.549 27.068 104.933 26.792C105.329 26.504 105.815 26.36 106.391 26.36C106.955 26.36 107.471 26.522 107.939 26.846C108.419 27.158 108.803 27.584 109.091 28.124C109.379 28.652 109.523 29.246 109.523 29.906V34.37C109.523 34.574 109.421 34.73 109.217 34.838C109.025 34.946 108.809 35 108.569 35C108.353 35 108.143 34.946 107.939 34.838C107.735 34.73 107.633 34.574 107.633 34.37V29.906C107.633 29.594 107.549 29.294 107.381 29.006C107.213 28.718 106.991 28.484 106.715 28.304C106.451 28.124 106.151 28.034 105.815 28.034C105.527 28.034 105.251 28.112 104.987 28.268C104.723 28.412 104.507 28.622 104.339 28.898C104.171 29.174 104.087 29.51 104.087 29.906V34.37C104.087 34.526 103.991 34.67 103.799 34.802C103.619 34.934 103.397 35 103.133 35ZM119.061 35.108C118.797 35.108 118.545 35.054 118.305 34.946C118.077 34.838 117.927 34.676 117.855 34.46L114.273 22.796C114.249 22.724 114.237 22.67 114.237 22.634C114.237 22.478 114.297 22.346 114.417 22.238C114.549 22.118 114.705 22.022 114.885 21.95C115.077 21.878 115.257 21.842 115.425 21.842C115.593 21.842 115.737 21.872 115.857 21.932C115.977 21.992 116.055 22.094 116.091 22.238L119.061 32.498L122.013 22.238C122.061 22.094 122.145 21.992 122.265 21.932C122.385 21.872 122.523 21.842 122.679 21.842C122.859 21.842 123.039 21.878 123.219 21.95C123.399 22.022 123.549 22.118 123.669 22.238C123.801 22.346 123.867 22.478 123.867 22.634C123.867 22.658 123.861 22.682 123.849 22.706C123.849 22.73 123.849 22.76 123.849 22.796L120.285 34.46C120.213 34.676 120.057 34.838 119.817 34.946C119.589 35.054 119.337 35.108 119.061 35.108ZM126.019 24.326C125.719 24.326 125.461 24.224 125.245 24.02C125.029 23.816 124.921 23.588 124.921 23.336C124.921 23.06 125.029 22.826 125.245 22.634C125.461 22.442 125.719 22.346 126.019 22.346C126.319 22.346 126.571 22.442 126.775 22.634C126.991 22.826 127.099 23.06 127.099 23.336C127.099 23.588 126.991 23.816 126.775 24.02C126.571 24.224 126.319 24.326 126.019 24.326ZM126.019 35C125.743 35 125.515 34.934 125.335 34.802C125.167 34.67 125.083 34.526 125.083 34.37V27.08C125.083 26.9 125.167 26.756 125.335 26.648C125.515 26.528 125.743 26.468 126.019 26.468C126.283 26.468 126.505 26.528 126.685 26.648C126.877 26.756 126.973 26.9 126.973 27.08V34.37C126.973 34.526 126.877 34.67 126.685 34.802C126.505 34.934 126.283 35 126.019 35ZM131.777 35.144C131.213 35.144 130.691 34.976 130.211 34.64C129.731 34.304 129.341 33.866 129.041 33.326C128.753 32.774 128.609 32.186 128.609 31.562V29.906C128.609 29.246 128.753 28.652 129.041 28.124C129.341 27.584 129.731 27.158 130.211 26.846C130.691 26.522 131.225 26.36 131.813 26.36C132.389 26.36 132.875 26.504 133.271 26.792C133.667 27.068 133.961 27.38 134.153 27.728V22.004C134.153 21.824 134.249 21.68 134.441 21.572C134.633 21.452 134.861 21.392 135.125 21.392C135.389 21.392 135.605 21.452 135.773 21.572C135.953 21.68 136.043 21.824 136.043 22.004V34.37C136.043 34.526 135.953 34.67 135.773 34.802C135.605 34.934 135.389 35 135.125 35C134.897 35 134.693 34.934 134.513 34.802C134.345 34.67 134.261 34.526 134.261 34.37V33.74C134.081 34.112 133.763 34.442 133.307 34.73C132.851 35.006 132.341 35.144 131.777 35.144ZM132.317 33.47C132.665 33.47 132.977 33.374 133.253 33.182C133.529 32.99 133.745 32.78 133.901 32.552C134.069 32.312 134.153 32.12 134.153 31.976V29.906C134.153 29.51 134.063 29.174 133.883 28.898C133.703 28.622 133.475 28.412 133.199 28.268C132.923 28.112 132.635 28.034 132.335 28.034C131.999 28.034 131.687 28.124 131.399 28.304C131.123 28.484 130.901 28.718 130.733 29.006C130.577 29.294 130.499 29.594 130.499 29.906V31.562C130.499 31.874 130.577 32.18 130.733 32.48C130.901 32.78 131.123 33.02 131.399 33.2C131.675 33.38 131.981 33.47 132.317 33.47ZM141.89 35.144C141.074 35.144 140.354 34.994 139.73 34.694C139.106 34.394 138.614 33.98 138.254 33.452C137.894 32.912 137.714 32.282 137.714 31.562V29.852C137.714 29.216 137.882 28.634 138.218 28.106C138.566 27.578 139.022 27.158 139.586 26.846C140.15 26.522 140.774 26.36 141.458 26.36C142.106 26.36 142.7 26.504 143.24 26.792C143.78 27.068 144.212 27.458 144.536 27.962C144.872 28.466 145.04 29.042 145.04 29.69C145.04 30.194 144.962 30.554 144.806 30.77C144.65 30.986 144.446 31.118 144.194 31.166C143.942 31.214 143.678 31.238 143.402 31.238H139.604V31.652C139.604 32.252 139.82 32.732 140.252 33.092C140.696 33.44 141.26 33.614 141.944 33.614C142.364 33.614 142.706 33.554 142.97 33.434C143.234 33.314 143.456 33.2 143.636 33.092C143.816 32.984 143.984 32.93 144.14 32.93C144.296 32.93 144.428 32.978 144.536 33.074C144.644 33.17 144.728 33.284 144.788 33.416C144.848 33.548 144.878 33.668 144.878 33.776C144.878 33.956 144.752 34.154 144.5 34.37C144.26 34.586 143.918 34.772 143.474 34.928C143.03 35.072 142.502 35.144 141.89 35.144ZM139.604 30.068H142.592C142.856 30.068 143.03 30.032 143.114 29.96C143.21 29.888 143.258 29.744 143.258 29.528C143.258 29.216 143.18 28.928 143.024 28.664C142.868 28.388 142.652 28.178 142.376 28.034C142.1 27.878 141.788 27.8 141.44 27.8C141.104 27.8 140.798 27.872 140.522 28.016C140.246 28.16 140.024 28.358 139.856 28.61C139.688 28.862 139.604 29.156 139.604 29.492V30.068ZM149.947 35.144C149.299 35.144 148.693 34.976 148.129 34.64C147.565 34.304 147.109 33.866 146.761 33.326C146.425 32.774 146.257 32.186 146.257 31.562V29.906C146.257 29.27 146.419 28.682 146.743 28.142C147.079 27.602 147.529 27.17 148.093 26.846C148.669 26.522 149.293 26.36 149.965 26.36C150.637 26.36 151.255 26.522 151.819 26.846C152.383 27.158 152.833 27.584 153.169 28.124C153.517 28.652 153.691 29.246 153.691 29.906V31.562C153.691 32.174 153.517 32.756 153.169 33.308C152.833 33.86 152.377 34.304 151.801 34.64C151.237 34.976 150.619 35.144 149.947 35.144ZM149.965 33.47C150.301 33.47 150.607 33.38 150.883 33.2C151.159 33.02 151.381 32.786 151.549 32.498C151.717 32.198 151.801 31.886 151.801 31.562V29.906C151.801 29.594 151.717 29.294 151.549 29.006C151.381 28.718 151.159 28.484 150.883 28.304C150.607 28.124 150.301 28.034 149.965 28.034C149.617 28.034 149.305 28.124 149.029 28.304C148.765 28.484 148.549 28.718 148.381 29.006C148.225 29.294 148.147 29.594 148.147 29.906V31.562C148.147 31.886 148.225 32.198 148.381 32.498C148.549 32.786 148.771 33.02 149.047 33.2C149.323 33.38 149.629 33.47 149.965 33.47Z" fill="#ADA7FF"/>
</svg>
